<?xml version="1.0" encoding="utf-8"?>
<!-- Generator: Adobe Illustrator 27.5.0, SVG Export Plug-In . SVG Version: 6.00 Build 0)  -->
<svg version="1.1" id="Layer_1" xmlns="http://www.w3.org/2000/svg" xmlns:xlink="http://www.w3.org/1999/xlink" x="0px" y="0px"
	 viewBox="0 0 5000 2916" style="enable-background:new 0 0 5000 2916;" xml:space="preserve">
<g>
	<rect style="fill-rule:evenodd;clip-rule:evenodd;fill:#E6E6E6;" width="5000" height="2916"/>
	<path style="opacity:0.48;fill-rule:evenodd;clip-rule:evenodd;fill:#808080;" d="M1657.968,2501.377
		C491.302,1676.092,0,2916,0,2916h5000v-689.717c0,0-125.363,1208.748-792.03,400.138
		C3058.931,1232.733,3408.722,3739.836,1657.968,2501.377"/>
	<path style="fill-rule:evenodd;clip-rule:evenodd;fill:#333333;" d="M1657.968,2501.377
		c1750.755,1238.459,1400.964-1268.645,2550.002,125.043c666.667,808.61,792.03-400.138,792.03-400.138v-52.025
		c0,0-125.363,1208.748-792.03,400.138c-1149.038-1393.689-799.247,1113.414-2550.002-125.043
		C491.302,1624.068,0,2863.975,0,2863.975V2916C0,2916,491.302,1676.092,1657.968,2501.377"/>
	<path style="opacity:0.44;fill-rule:evenodd;clip-rule:evenodd;fill:#808080;" d="M0,0c0,0,229.825,1695.882,1871.493,970.632
		C4390.444-142.185,3271.683,2573.529,5000,1154.026V0H0z"/>
	<path style="fill-rule:evenodd;clip-rule:evenodd;fill:#333333;" d="M5000,1154.026
		C3271.683,2573.529,4390.444-142.185,1871.493,970.632C460.529,1593.961,92.479,428.833,16.896,89.049H0
		c0,0,229.825,1695.882,1871.493,970.632C4390.444-53.133,3271.683,2662.579,5000,1243.077V1154.026z"/>
</g>
</svg>
